#!OML:ASF Y:\EmotionMaleHayes\Project 1\Capture day 1\Session 1\Male1.ASF
:FULLY-SPECIFIED
:DEGREES
34
root -10.458 16.5605 -0.0635881 -35.5076 81.0186 -41.8867
lowerback 14.622 6.37409 4.90343
upperback 2.45046 9.23692 -0.725637
thorax -4.61837 4.52171 -5.11864
lowerneck -29.278 -3.62432 -1.08858
upperneck 21.8082 -5.21042 2.24997
head 12.0896 -2.0758 0.0732112
rclavicle 5.11374e-014 -1.87852e-014
rhumerus -41.0623 31.5429 -97.9238
rradius 100.172
rwrist -19.5689
rhand -25.3546 -28.0626
rfingers 7.12502
rthumb 1.16911 -58.0391
lclavicle 5.11374e-014 -1.87852e-014
lhumerus -78.5931 -20.43 91.9663
lradius 73.0822
lwrist 11.1956
lhand -29.358 -19.9871
lfingers 7.12502
lthumb -2.69745 9.97555
rfemur 18.478 6.93697 25.1868
rtibia 68.2934
rfoot 6.75403 -16.3145
rtoes 21.7605
lfemur -35.8454 10.459 -15.6433
ltibia 25.0332
lfoot 347.025 3.94448
ltoes -9.26554
35
root -9.88082 16.4649 -0.0602837 -36.2289 81.4411 -42.1232
lowerback 14.9856 5.97287 4.70193
upperback 2.53205 8.67857 -1.04419
thorax -4.771 4.24622 -5.30073
lowerneck -29.0134 -3.42923 -0.799694
upperneck 21.5656 -5.11869 2.47235
head 11.9463 -1.98476 0.133211
rclavicle 4.27387e-014 9.54166e-015
rhumerus -43.1192 30.5303 -99.386
rradius 98.1743
rwrist -19.8995
rhand -23.9795 -29.6531
rfingers 7.12502
rthumb 2.49714 -59.6182
lclavicle 4.27387e-014 9.54166e-015
lhumerus -75.7435 -20.2255 91.1991
lradius 72.3825
lwrist 10.8557
lhand -29.3421 -19.9748
lfingers 7.12502
lthumb -2.68209 9.98804
rfemur 16.6698 6.62183 24.992
rtibia 74.487
rfoot 6.96568 -13.1675
rtoes 28.072
lfemur -34.7186 11.0944 -16.3983
ltibia 27.1834
lfoot 348.564 2.62388
ltoes -11.5332
36
root -9.31404 16.3565 -0.060184 -37.3797 82.854 -42.7677
lowerback 15.2774 5.34755 3.94328
upperback 2.72274 7.73234 -1.37154
thorax -4.88959 3.7938 -5.10245
lowerneck -28.7428 -3.24961 -0.538564
upperneck 21.2068 -4.97446 2.49867
head 11.7505 -1.90483 0.133076
rclavicle 7.05686e-015 1.23246e-014
rhumerus -45.0153 29.4767 -100.418
rradius 96.0046
rwrist -20.0977
rhand -23.1101 -30.3604
rfingers 7.12502
rthumb 3.33673 -60.314
lclavicle 7.05686e-015 1.23246e-014
lhumerus -72.6522 -20.0099 90.6481
lradius 71.7125
lwrist 9.94642
lhand -29.3818 -19.5249
lfingers 7.12502
lthumb -2.72046 10.4375
rfemur 14.7968 5.34327 23.9004
rtibia 81.7075
rfoot 19.0293 18.3492
rtoes 26.9649
lfemur -34.0981 11.3639 -18.2002
ltibia 30.1792
lfoot 350.209 1.75413
ltoes 0.104567
37
root -8.76919 16.2356 -0.0786526 -36.8522 84.4085 -41.9125
lowerback 15.6444 4.67868 3.0374
upperback 2.85458 6.70436 -1.67615
thorax -5.12539 3.29798 -4.78218
lowerneck -28.5271 -3.12354 -0.761818
upperneck 20.7508 -4.74954 2.71638
head 11.5461 -1.80503 0.295646
rclavicle 5.4964e-014 -3.02153e-014
rhumerus -46.6243 28.5995 -100.985
rradius 93.5132
rwrist -20.1693
rhand -22.1935 -30.5982
rfingers 7.12502
rthumb 4.22195 -60.5361
lclavicle 5.4964e-014 -3.02153e-014
lhumerus -69.4385 -19.6187 90.2957
lradius 70.9692
lwrist 8.55658
lhand -29.4629 -19.5441
lfingers 7.12502
lthumb -2.79874 10.4173
rfemur 12.5196 3.88401 22.0449
rtibia 87.6941
rfoot 37.4086 48.4114
rtoes 26.7264
lfemur -34.1001 10.835 -20.1986
ltibia 33.9073
lfoot 348.708 2.63123
ltoes -7.59634
38
root -8.23928 16.1187 -0.070385 -26.3493 86.5447 -31.0209
lowerback 16.1673 4.05974 1.03081
upperback 3.0741 5.55179 -2.15166
thorax -5.42788 2.76274 -3.99489
lowerneck -28.3653 -2.97952 -1.14191
upperneck 20.0744 -4.50755 3.2345
head 11.281 -1.67076 0.59594
rclavicle 8.15017e-015 1.19271e-015
rhumerus -47.8203 27.489 -101.354
rradius 90.6322
rwrist -19.5614
rhand -21.236 -31.1792
rfingers 7.12502
rthumb 5.14649 -61.0967
lclavicle 8.15017e-015 1.19271e-015
lhumerus -65.9456 -19.3029 89.8175
lradius 70.3169
lwrist 7.11364
lhand -29.6342 -19.6747
lfingers 7.12502
lthumb -2.96418 10.2845
rfemur 10.0943 2.01194 19.3261
rtibia 88.6353
rfoot 92.5711 69.1043
rtoes 27.1808
lfemur -34.5211 9.11999 -22.6506
ltibia 38.1346
lfoot 347.581 3.87458
ltoes -8.34393
39
root -7.71871 16.0095 -0.039003 44.3514 87.9057 39.9886
lowerback 16.8546 3.56192 -2.26797
upperback 3.1962 4.29936 -2.96306
thorax -5.92975 2.20672 -2.80811
lowerneck -28.0983 -2.87186 -1.41618
upperneck 19.452 -4.35479 3.73859
head 11.018 -1.56892 0.855446
rclavicle 3.63776e-014 -3.73715e-014
rhumerus -49.1037 25.8148 -101.646
rradius 87.6185
rwrist -18.6843
rhand -20.6726 -32.2636
rfingers 7.12502
rthumb 5.69043 -62.1672
lclavicle 3.63776e-014 -3.73715e-014
lhumerus -62.4568 -19.3935 89.3504
lradius 69.7641
lwrist 5.89715
lhand -30.138 -19.9168
lfingers 7.12502
lthumb -3.45069 10.0351
rfemur 7.23284 -0.302718 15.3969
rtibia 84.3859
rfoot 159.856 53.7204
rtoes 28.7497
lfemur -34.5183 7.05768 -26.3623
ltibia 41.5122
lfoot 346.77 4.07768
ltoes -5.30172
40
root -7.20478 15.9081 -0.0134993 93.6431 84.7815 89.4856
lowerback 17.524 3.06346 -6.18604
upperback 3.35259 2.90598 -3.91873
thorax -6.28701 1.61955 -1.36628
lowerneck -27.9627 -2.79852 -1.64665
upperneck 18.9672 -4.19232 3.93743
head 10.8195 -1.49697 0.993934
rclavicle -1.0138e-014 4.6118e-014
rhumerus -50.2365 24.0304 -101.528
rradius 84.5331
rwrist -18.2249
rhand -20.68 -33.0593
rfingers 7.12502
rthumb 5.68331 -62.9631
lclavicle -1.0138e-014 4.6118e-014
lhumerus -58.7166 -19.6181 89.0023
lradius 69.1535
lwrist 4.9081
lhand -30.8459 -20.3918
lfingers 7.12502
lthumb -4.13437 9.54786
rfemur 3.91817 -3.06765 10.5464
rtibia 78.4814
rfoot 179.064 23.0829
rtoes 29.5914
lfemur -33.9601 4.64187 -30.9578
ltibia 44.3081
lfoot 344.895 3.61358
ltoes -2.95843
41
root -6.68642 15.8128 0.00548293 102.928 80.9755 98.8907
lowerback 18.0011 2.63781 -9.8835
upperback 3.60148 1.66168 -4.80098
thorax -6.29093 1.11288 0.0137252
lowerneck -28.0797 -2.76557 -1.89651
upperneck 18.5548 -4.06543 4.08527
head 10.692 -1.4441 1.10839
rclavicle -2.18663e-015 -4.45278e-014
rhumerus -51.2043 22.2614 -101.121
rradius 81.3133
rwrist -16.8419
rhand -21.0407 -33.0786
rfingers 7.12502
rthumb 5.33508 -62.9914
lclavicle -2.18663e-015 -4.45278e-014
lhumerus -54.5266 -20.1393 88.7447
lradius 68.3484
lwrist 4.20693
lhand -31.7192 -20.8251
lfingers 7.12502
lthumb -4.97763 9.09648
rfemur 0.20733 -5.93474 5.91346
rtibia 73.6211
rfoot 179.564 21.2985
rtoes 28.1221
lfemur -31.6173 2.73575 -35.3181
ltibia 44.8065
lfoot 342.647 2.91385
ltoes -1.62131
42
root -6.15363 15.7339 0.00859379 106.791 77.6796 102.822
lowerback 18.3088 2.23704 -12.856
upperback 3.89751 0.616726 -5.51789
thorax -6.03946 0.680256 1.11355
lowerneck -28.4453 -2.76664 -2.24576
upperneck 18.3646 -3.97108 4.31861
head 10.6945 -1.39427 1.26373
rclavicle 2.0276e-014 -1.35174e-014
rhumerus -52.3515 20.357 -100.316
rradius 78.5703
rwrist -15.1252
rhand -21.2915 -34.1083
rfingers 7.12502
rthumb 5.09287 -64.0271
lclavicle 2.0276e-014 -1.35174e-014
lhumerus -50.0837 -21.0528 88.5678
lradius 67.339
lwrist 3.93268
lhand -32.8034 -22.0763
lfingers 7.12502
lthumb -6.02441 7.81802
rfemur -3.73795 -8.89652 2.03329
rtibia 69.059
rfoot 179.788 20.0214
rtoes 21.4227
lfemur -28.7693 1.13394 -38.9891
ltibia 44.6178
lfoot 340.558 2.25728
ltoes -0.137665
